<svg xmlns="http://www.w3.org/2000/svg" width="1000" height="540" viewBox="0 0 1000 540" role="img" aria-labelledby="title desc">
<title id="title">Calibration on the held-out Adult test split</title>
<desc id="desc">Mean predicted probability versus observed &gt;50K rate by populated score bin. Source: UCI Adult, DOI 10.24432/C5XW20; source-defined train/test split</desc>
<defs>
  <pattern id="microGrid" width="22" height="22" patternUnits="userSpaceOnUse">
    <circle cx="1" cy="1" r=".85" fill="#FFFFFF" opacity=".12"/>
  </pattern>
</defs>
<rect width="1000" height="540" fill="#F3F6FA"/>
<rect width="1000" height="102" fill="#0B1F3A"/>
<rect width="1000" height="102" fill="url(#microGrid)"/>
<rect width="8" height="102" fill="#246BFD"/>
<circle cx="925" cy="50" r="30" fill="none" stroke="#246BFD" stroke-width="2" opacity=".9"/>
<circle cx="925" cy="50" r="9" fill="#246BFD"/>
<circle cx="925" cy="50" r="52" fill="none" stroke="#49627F" stroke-width="1" opacity=".55"/>
<line x1="860" y1="50" x2="990" y2="50" stroke="#49627F" stroke-width="1"/>
<line x1="925" y1="4" x2="925" y2="96" stroke="#49627F" stroke-width="1"/>
<text x="42" y="24" font-family="-apple-system,BlinkMacSystemFont,'Segoe UI',Arial,sans-serif" font-size="9.5" font-weight="800" letter-spacing="1.6" fill="#246BFD">EDITORIAL EVIDENCE · ANALYTICAL REPORT</text>
<text x="42" y="55" font-family="-apple-system,BlinkMacSystemFont,'Segoe UI',Arial,sans-serif" font-size="25" font-weight="760" fill="#FFFFFF">Calibration on the held-out Adult test split</text>
<text x="42" y="82" font-family="-apple-system,BlinkMacSystemFont,'Segoe UI',Arial,sans-serif" font-size="13.5" fill="#C7D4E4">Mean predicted probability versus observed &gt;50K rate by populated score bin</text>
<rect x="36" y="110" width="928" height="348" rx="18" fill="#07152A" opacity=".07"/>
<rect x="32" y="104" width="936" height="350" rx="18" fill="#FFFFFF" stroke="#D9E2EC"/>
<rect x="32" y="104" width="5" height="350" rx="2.5" fill="#246BFD"/>
<rect x="45" y="112" width="74" height="8" rx="4" fill="#E8F0FF"/>
<rect x="66" y="119" width="874" height="317" rx="13" fill="#FBFCFE" stroke="#D9E2EC"/><rect x="90" y="126" width="106" height="24" rx="12" fill="#E8F0FF"/><text x="143" y="142" text-anchor="middle" font-family="-apple-system,BlinkMacSystemFont,&quot;Segoe UI&quot;,Arial,sans-serif" font-size="9" font-weight="800" letter-spacing=".8" fill="#246BFD">12 OBSERVATIONS</text><line x1="90" y1="430" x2="930" y2="430" stroke="#263449" stroke-width="1.4"/><line x1="90" y1="110" x2="90" y2="430" stroke="#263449" stroke-width="1.4"/><line x1="90" y1="430" x2="90" y2="436" stroke="#0B1324"/><text x="90" y="451" text-anchor="middle" font-family="Arial" font-size="12" fill="#617084">0%</text><line x1="300" y1="430" x2="300" y2="436" stroke="#0B1324"/><text x="300" y="451" text-anchor="middle" font-family="Arial" font-size="12" fill="#617084">25%</text><line x1="510" y1="430" x2="510" y2="436" stroke="#0B1324"/><text x="510" y="451" text-anchor="middle" font-family="Arial" font-size="12" fill="#617084">50%</text><line x1="720" y1="430" x2="720" y2="436" stroke="#0B1324"/><text x="720" y="451" text-anchor="middle" font-family="Arial" font-size="12" fill="#617084">75%</text><line x1="930" y1="430" x2="930" y2="436" stroke="#0B1324"/><text x="930" y="451" text-anchor="middle" font-family="Arial" font-size="12" fill="#617084">100%</text><line x1="90" y1="110" x2="930" y2="110" stroke="#D9E2EC" stroke-dasharray="2 5"/><text x="82" y="114" text-anchor="end" font-family="Arial" font-size="12" fill="#617084">100%</text><line x1="90" y1="190" x2="930" y2="190" stroke="#D9E2EC" stroke-dasharray="2 5"/><text x="82" y="194" text-anchor="end" font-family="Arial" font-size="12" fill="#617084">75%</text><line x1="90" y1="270" x2="930" y2="270" stroke="#D9E2EC" stroke-dasharray="2 5"/><text x="82" y="274" text-anchor="end" font-family="Arial" font-size="12" fill="#617084">50%</text><line x1="90" y1="350" x2="930" y2="350" stroke="#D9E2EC" stroke-dasharray="2 5"/><text x="82" y="354" text-anchor="end" font-family="Arial" font-size="12" fill="#617084">25%</text><line x1="90" y1="430" x2="930" y2="430" stroke="#D9E2EC" stroke-dasharray="2 5"/><text x="82" y="434" text-anchor="end" font-family="Arial" font-size="12" fill="#617084">0%</text><polyline points="91.6,429.6 95.3,429.0 102.3,426.3 116.4,417.4 147.6,410.3 208.4,379.9 297.6,347.6 416.3,306.0 600.8,242.1 819.2,156.0" fill="none" stroke="#246BFD" stroke-width="4" stroke-linejoin="round" stroke-linecap="round"/><circle cx="819.2" cy="156.0" r="6" fill="#FFFFFF" stroke="#246BFD" stroke-width="3"/><circle cx="91.6" cy="429.6" r="2.7" fill="#FFFFFF" stroke="#246BFD" stroke-width="1.6"/><circle cx="95.3" cy="429.0" r="2.7" fill="#FFFFFF" stroke="#246BFD" stroke-width="1.6"/><circle cx="102.3" cy="426.3" r="2.7" fill="#FFFFFF" stroke="#246BFD" stroke-width="1.6"/><circle cx="116.4" cy="417.4" r="2.7" fill="#FFFFFF" stroke="#246BFD" stroke-width="1.6"/><circle cx="147.6" cy="410.3" r="2.7" fill="#FFFFFF" stroke="#246BFD" stroke-width="1.6"/><circle cx="208.4" cy="379.9" r="2.7" fill="#FFFFFF" stroke="#246BFD" stroke-width="1.6"/><circle cx="297.6" cy="347.6" r="2.7" fill="#FFFFFF" stroke="#246BFD" stroke-width="1.6"/><circle cx="416.3" cy="306.0" r="2.7" fill="#FFFFFF" stroke="#246BFD" stroke-width="1.6"/><circle cx="600.8" cy="242.1" r="2.7" fill="#FFFFFF" stroke="#246BFD" stroke-width="1.6"/><line x1="110" y1="96" x2="140" y2="96" stroke="#246BFD" stroke-width="4" stroke-linecap="round"/><text x="146" y="100" font-family="-apple-system,BlinkMacSystemFont,&quot;Segoe UI&quot;,Arial,sans-serif" font-size="12.5" font-weight="650" fill="#C7D4E4">Observed</text><polyline points="90.0,430.0 930.0,110.0" fill="none" stroke="#C69214" stroke-width="3" stroke-linejoin="round" stroke-linecap="round" stroke-dasharray="7 5"/><circle cx="930.0" cy="110.0" r="4.5" fill="#FFFFFF" stroke="#C69214" stroke-width="3"/><circle cx="90.0" cy="430.0" r="2.7" fill="#FFFFFF" stroke="#C69214" stroke-width="1.6"/><line x1="300" y1="96" x2="330" y2="96" stroke="#C69214" stroke-width="4" stroke-linecap="round" stroke-dasharray="7 5"/><text x="336" y="100" font-family="-apple-system,BlinkMacSystemFont,&quot;Segoe UI&quot;,Arial,sans-serif" font-size="12.5" font-weight="650" fill="#C7D4E4">Ideal</text>
<line x1="42" y1="485" x2="958" y2="485" stroke="#B9C6D5"/>
<text x="42" y="510" font-family="-apple-system,BlinkMacSystemFont,'Segoe UI',Arial,sans-serif" font-size="10.5" fill="#617084">Source: UCI Adult, DOI 10.24432/C5XW20; source-defined train/test split</text>
<text x="958" y="510" text-anchor="end" font-family="-apple-system,BlinkMacSystemFont,'Segoe UI',Arial,sans-serif" font-size="9.5" font-weight="750" letter-spacing=".8" fill="#246BFD">SOURCE-TRACEABLE · CLAIM-BOUNDED</text>
</svg>
