<svg xmlns="http://www.w3.org/2000/svg" width="1200" height="478" viewBox="0 0 1200 478" role="img" aria-labelledby="title desc">
<title id="title">Decision robustness profile</title>
<desc id="desc">Donut and bullet bars show probability-best, weight stability, scenario stability, constraint headroom, their weights, and the overall robustness diagnostic.</desc>
<defs>
  <pattern id="headerGrid" width="22" height="22" patternUnits="userSpaceOnUse">
    <circle cx="1" cy="1" r=".85" fill="#FFFFFF" opacity=".12"/>
  </pattern>
</defs>
<style>
  text { font-family: -apple-system, BlinkMacSystemFont, "Segoe UI", Arial, sans-serif; }
  .kicker { font-size: 11px; font-weight: 800; letter-spacing: 1.6px; }
  .title { font-size: 28px; font-weight: 780; letter-spacing: -0.35px; }
  .subtitle { font-size: 14px; }
  .section { fill: #0B1324; font-size: 17px; font-weight: 720; }
  .label { fill: #263449; font-size: 14px; }
  .small { fill: #617084; font-size: 12px; }
  .eyebrow { fill: #617084; font-size: 10.5px; font-weight: 800; letter-spacing: 1px; }
  .value { fill: #0B1324; font-size: 16px; font-weight: 750; font-variant-numeric: tabular-nums; }
  .big { fill: #0B1324; font-size: 30px; font-weight: 800; font-variant-numeric: tabular-nums; }
  .display { fill: #0B1324; font-size: 38px; font-weight: 820; font-variant-numeric: tabular-nums; }
  .mono { fill: #263449; font-size: 12.5px; font-family: ui-monospace, SFMono-Regular, Menlo, Consolas, monospace; font-variant-numeric: tabular-nums; }
  .pill { font-size: 11px; font-weight: 760; letter-spacing: .25px; }
  .footnote { fill: #8B98A9; font-size: 10.5px; }
  .micro { fill: #8B98A9; font-size: 8.5px; font-weight: 800; letter-spacing: 1px; }
</style>
<rect width="1200" height="478" fill="#EEF3F8"/>
<circle cx="1180" cy="448" r="120" fill="#4E7D32" opacity=".035"/>
<circle cx="36" cy="473" r="86" fill="#4E7D32" opacity=".025"/>
<rect width="1200" height="118" fill="#0B1F3A"/>
<rect width="1200" height="118" fill="url(#headerGrid)"/>
<rect width="10" height="118" fill="#4E7D32"/>
<rect x="34" y="19" width="4" height="16" rx="2" fill="#4E7D32"/>
<text x="48.0" y="31.0" class="kicker" text-anchor="start" style="fill:#4E7D32">DECISION INTELLIGENCE</text>
<text x="42.0" y="68.0" class="title" text-anchor="start" style="fill:#FFFFFF">Decision robustness profile</text>
<text x="42.0" y="96.0" class="subtitle" text-anchor="start" style="fill:#C7D4E4">Transparent components explain the modeled score and readiness status</text>
<rect x="933" y="20" width="139" height="24" rx="12" fill="#13345B" stroke="#36516F"/>
<text x="1002.5" y="36.0" class="micro" text-anchor="middle" style="fill:#AFC0D3">MODEL-BOUND EVIDENCE</text>
<circle cx="1125" cy="58" r="31" fill="none" stroke="#4E7D32" stroke-width="2"/>
<circle cx="1125" cy="58" r="10" fill="#4E7D32"/>
<circle cx="1125" cy="58" r="52" fill="none" stroke="#49627F" stroke-width="1" opacity=".7"/>
<line x1="1065" y1="58" x2="1185" y2="58" stroke="#49627F" stroke-width="1"/>
<line x1="1125" y1="5" x2="1125" y2="111" stroke="#49627F" stroke-width="1"/>
<rect x="38.0" y="140.0" width="322.0" height="270.0" rx="18" fill="#07152A" opacity=".055"/><rect x="36.0" y="134.0" width="322.0" height="270.0" rx="18" fill="#FFFFFF" stroke="#D9E2EC" stroke-width="1"/>
<circle cx="197.0" cy="242.0" r="72.0" fill="none" stroke="#DCE4ED" stroke-width="16"/>
<circle cx="197.0" cy="242.0" r="56.0" fill="none" stroke="#D9E2EC" stroke-width="1" opacity=".8"/>
<circle cx="197.0" cy="242.0" r="72.0" fill="none" stroke="#4E7D32" stroke-width="16" stroke-linecap="round" stroke-dasharray="353.5 452.4" transform="rotate(-90 197.0 242.0)"/>
<text x="197.0" y="239.0" class="display" text-anchor="middle">78</text>
<text x="197.0" y="261.0" class="eyebrow" text-anchor="middle">OF 100</text>
<rect x="77.0" y="334.0" width="240.0" height="28.0" rx="14" fill="#FBE7E7" stroke="none" stroke-width="1"/>
<text x="197.0" y="353.0" class="pill" text-anchor="middle" style="fill:#B33A3A">Provisional—validate before action</text>
<text x="197.0" y="384.0" class="small" text-anchor="middle">Model behavior · not real-world confidence</text>
<rect x="382.0" y="138.0" width="782.0" height="58.0" rx="12" fill="#FFFFFF" stroke="#D9E2EC" stroke-width="1"/>
<text x="402.0" y="161.0" class="section" text-anchor="start">P(best among feasible)</text>
<text x="402.0" y="181.0" class="small" text-anchor="start">How often this option leads</text>
<rect x="690.0" y="162.0" width="320.0" height="10.0" rx="5.0" fill="#E8EDF3"/>
<rect x="690.0" y="162.0" width="175.6" height="10.0" rx="5.0" fill="#4E7D32"/>
<line x1="930.0" y1="158.0" x2="930.0" y2="176.0" stroke="#0B1324" stroke-width="1.5"/>
<text x="1030.0" y="167.0" class="value" text-anchor="start">55%</text>
<rect x="1083.0" y="153.0" width="62.0" height="28.0" rx="14" fill="#E8F2DF" stroke="none" stroke-width="1"/>
<text x="1114.0" y="172.0" class="pill" text-anchor="middle" style="fill:#4E7D32">w 30%</text>
<rect x="382.0" y="206.0" width="782.0" height="58.0" rx="12" fill="#FFFFFF" stroke="#D9E2EC" stroke-width="1"/>
<text x="402.0" y="229.0" class="section" text-anchor="start">Weight stability</text>
<text x="402.0" y="249.0" class="small" text-anchor="start">Survives local value changes</text>
<rect x="690.0" y="230.0" width="320.0" height="10.0" rx="5.0" fill="#E8EDF3"/>
<rect x="690.0" y="230.0" width="213.3" height="10.0" rx="5.0" fill="#4E7D32"/>
<line x1="930.0" y1="226.0" x2="930.0" y2="244.0" stroke="#0B1324" stroke-width="1.5"/>
<text x="1030.0" y="235.0" class="value" text-anchor="start">67%</text>
<rect x="1083.0" y="221.0" width="62.0" height="28.0" rx="14" fill="#E8F2DF" stroke="none" stroke-width="1"/>
<text x="1114.0" y="240.0" class="pill" text-anchor="middle" style="fill:#4E7D32">w 25%</text>
<rect x="382.0" y="274.0" width="782.0" height="58.0" rx="12" fill="#FFFFFF" stroke="#D9E2EC" stroke-width="1"/>
<text x="402.0" y="297.0" class="section" text-anchor="start">Scenario stability</text>
<text x="402.0" y="317.0" class="small" text-anchor="start">Leads across modeled worlds</text>
<rect x="690.0" y="298.0" width="320.0" height="10.0" rx="5.0" fill="#E8EDF3"/>
<rect x="690.0" y="298.0" width="320.0" height="10.0" rx="5.0" fill="#4E7D32"/>
<line x1="930.0" y1="294.0" x2="930.0" y2="312.0" stroke="#0B1324" stroke-width="1.5"/>
<text x="1030.0" y="303.0" class="value" text-anchor="start">100%</text>
<rect x="1083.0" y="289.0" width="62.0" height="28.0" rx="14" fill="#E8F2DF" stroke="none" stroke-width="1"/>
<text x="1114.0" y="308.0" class="pill" text-anchor="middle" style="fill:#4E7D32">w 25%</text>
<rect x="382.0" y="342.0" width="782.0" height="58.0" rx="12" fill="#FFFFFF" stroke="#D9E2EC" stroke-width="1"/>
<text x="402.0" y="365.0" class="section" text-anchor="start">Constraint headroom</text>
<text x="402.0" y="385.0" class="small" text-anchor="start">Distance from risk boundary</text>
<rect x="690.0" y="366.0" width="320.0" height="10.0" rx="5.0" fill="#E8EDF3"/>
<rect x="690.0" y="366.0" width="320.0" height="10.0" rx="5.0" fill="#4E7D32"/>
<line x1="930.0" y1="362.0" x2="930.0" y2="380.0" stroke="#0B1324" stroke-width="1.5"/>
<text x="1030.0" y="371.0" class="value" text-anchor="start">100%</text>
<rect x="1083.0" y="357.0" width="62.0" height="28.0" rx="14" fill="#E8F2DF" stroke="none" stroke-width="1"/>
<text x="1114.0" y="376.0" class="pill" text-anchor="middle" style="fill:#4E7D32">w 20%</text>
<text x="382.0" y="430.0" class="small" text-anchor="start">Reference marker = 75% diagnostic threshold · component weights sum to 100%</text>
<line x1="36" y1="438.0" x2="1164" y2="438.0" stroke="#D9E2EC" stroke-width="1"/>
<text x="42.0" y="460.0" class="footnote" text-anchor="start">Source: decision-results.json</text>
<text x="1158.0" y="460.0" class="footnote" text-anchor="end">Synthetic demonstration · values shown directly</text>
<text x="600.0" y="460.0" class="micro" text-anchor="middle" style="fill:#8B98A9">HIGH-STAKES ANALYTICS &amp; DECISION LAB · EDITORIAL EVIDENCE SYSTEM</text>
</svg>
