<svg xmlns="http://www.w3.org/2000/svg" width="1200" height="620" viewBox="0 0 1200 620" role="img" aria-labelledby="title desc">
<title id="title">Prediction Model Validation</title>
<desc id="desc">Reliability points are plotted against perfect calibration and sized by bin count. Cards show AUC, Brier score, calibration error, recall, subgroup error gaps, and drift.</desc>
<style>
  text { font-family: -apple-system, BlinkMacSystemFont, "Segoe UI", Arial, sans-serif; }
  .kicker { font-size: 11px; font-weight: 800; letter-spacing: 1.6px; }
  .title { font-size: 27px; font-weight: 760; letter-spacing: -0.2px; }
  .subtitle { font-size: 14px; }
  .section { fill: #0B1324; font-size: 17px; font-weight: 720; }
  .label { fill: #263449; font-size: 14px; }
  .small { fill: #617084; font-size: 12px; }
  .eyebrow { fill: #617084; font-size: 10.5px; font-weight: 800; letter-spacing: 1px; }
  .value { fill: #0B1324; font-size: 16px; font-weight: 750; font-variant-numeric: tabular-nums; }
  .big { fill: #0B1324; font-size: 30px; font-weight: 800; font-variant-numeric: tabular-nums; }
  .display { fill: #0B1324; font-size: 38px; font-weight: 820; font-variant-numeric: tabular-nums; }
  .mono { fill: #263449; font-size: 12.5px; font-family: ui-monospace, SFMono-Regular, Menlo, Consolas, monospace; font-variant-numeric: tabular-nums; }
  .pill { font-size: 11px; font-weight: 760; letter-spacing: .25px; }
  .footnote { fill: #8B98A9; font-size: 10.5px; }
</style>
<rect width="1200" height="620" fill="#F3F6FA"/>
<rect width="1200" height="112" fill="#0B1F3A"/>
<rect width="10" height="112" fill="#7257D9"/>
<text x="42.0" y="32.0" class="kicker" text-anchor="start" style="fill:#7257D9">PREDICTION VALIDATION</text>
<text x="42.0" y="66.0" class="title" text-anchor="start" style="fill:#FFFFFF">Prediction Model Validation</text>
<text x="42.0" y="93.0" class="subtitle" text-anchor="start" style="fill:#C7D4E4">Reliability, discrimination, calibration, threshold performance, subgroup error, and drift</text>
<circle cx="1122" cy="56" r="28" fill="none" stroke="#7257D9" stroke-width="2"/>
<circle cx="1122" cy="56" r="9" fill="#7257D9"/>
<line x1="1084" y1="56" x2="1160" y2="56" stroke="#49627F" stroke-width="1"/>
<line x1="1122" y1="18" x2="1122" y2="94" stroke="#49627F" stroke-width="1"/>
<rect x="36.0" y="134.0" width="396.0" height="402.0" rx="17" fill="#FFFFFF" stroke="#D9E2EC" stroke-width="1"/>
<text x="58.0" y="160.0" class="eyebrow" text-anchor="start">RELIABILITY</text>
<line x1="74.0" y1="162" x2="74.0" y2="492" stroke="#D9E2EC"/>
<line x1="74" y1="492.0" x2="404" y2="492.0" stroke="#D9E2EC"/>
<text x="74.0" y="514.0" class="small" text-anchor="middle">0</text>
<text x="62.0" y="496.0" class="small" text-anchor="end">0</text>
<line x1="156.5" y1="162" x2="156.5" y2="492" stroke="#D9E2EC"/>
<line x1="74" y1="409.5" x2="404" y2="409.5" stroke="#D9E2EC"/>
<text x="156.5" y="514.0" class="small" text-anchor="middle">0.25</text>
<text x="62.0" y="413.5" class="small" text-anchor="end">0.25</text>
<line x1="239.0" y1="162" x2="239.0" y2="492" stroke="#D9E2EC"/>
<line x1="74" y1="327.0" x2="404" y2="327.0" stroke="#D9E2EC"/>
<text x="239.0" y="514.0" class="small" text-anchor="middle">0.5</text>
<text x="62.0" y="331.0" class="small" text-anchor="end">0.5</text>
<line x1="321.5" y1="162" x2="321.5" y2="492" stroke="#D9E2EC"/>
<line x1="74" y1="244.5" x2="404" y2="244.5" stroke="#D9E2EC"/>
<text x="321.5" y="514.0" class="small" text-anchor="middle">0.75</text>
<text x="62.0" y="248.5" class="small" text-anchor="end">0.75</text>
<line x1="404.0" y1="162" x2="404.0" y2="492" stroke="#D9E2EC"/>
<line x1="74" y1="162.0" x2="404" y2="162.0" stroke="#D9E2EC"/>
<text x="404.0" y="514.0" class="small" text-anchor="middle">1</text>
<text x="62.0" y="166.0" class="small" text-anchor="end">1</text>
<line x1="74" y1="492" x2="404" y2="162" stroke="#0B1F3A" stroke-width="2" stroke-dasharray="7 6"/>
<line x1="74" y1="162" x2="74" y2="492" stroke="#0B1324" stroke-width="1.5"/>
<line x1="74" y1="492" x2="404" y2="492" stroke="#0B1324" stroke-width="1.5"/>
<circle cx="100.4" cy="492.0" r="5.0" fill="#7257D9" opacity=".84" stroke="#FFFFFF" stroke-width="2"/>
<circle cx="122.7" cy="492.0" r="6.0" fill="#7257D9" opacity=".84" stroke="#FFFFFF" stroke-width="2"/>
<circle cx="155.9" cy="492.0" r="6.4" fill="#7257D9" opacity=".84" stroke="#FFFFFF" stroke-width="2"/>
<circle cx="188.4" cy="492.0" r="6.4" fill="#7257D9" opacity=".84" stroke="#FFFFFF" stroke-width="2"/>
<circle cx="223.8" cy="360.0" r="6.2" fill="#7257D9" opacity=".84" stroke="#FFFFFF" stroke-width="2"/>
<circle cx="260.8" cy="162.0" r="6.2" fill="#7257D9" opacity=".84" stroke="#FFFFFF" stroke-width="2"/>
<circle cx="288.5" cy="162.0" r="6.4" fill="#7257D9" opacity=".84" stroke="#FFFFFF" stroke-width="2"/>
<circle cx="316.6" cy="162.0" r="6.0" fill="#7257D9" opacity=".84" stroke="#FFFFFF" stroke-width="2"/>
<circle cx="350.1" cy="162.0" r="5.7" fill="#7257D9" opacity=".84" stroke="#FFFFFF" stroke-width="2"/>
<polyline points="100.4,492.0 122.7,492.0 155.9,492.0 188.4,492.0 223.8,360.0 260.8,162.0 288.5,162.0 316.6,162.0 350.1,162.0" fill="none" stroke="#7257D9" stroke-width="3"/>
<rect x="454.0" y="134.0" width="330.0" height="94.0" rx="14" fill="#FFFFFF" stroke="#D9E2EC" stroke-width="1"/>
<text x="472.0" y="159.0" class="eyebrow" text-anchor="start">DISCRIMINATION</text>
<text x="472.0" y="188.0" class="section" text-anchor="start">AUC</text>
<text x="760.0" y="187.0" class="big" text-anchor="end" style="fill:#7257D9">0.998</text>
<text x="472.0" y="212.0" class="small" text-anchor="start">higher separates classes</text>
<rect x="806.0" y="134.0" width="330.0" height="94.0" rx="14" fill="#FFFFFF" stroke="#D9E2EC" stroke-width="1"/>
<text x="824.0" y="159.0" class="eyebrow" text-anchor="start">PROBABILITY ERROR</text>
<text x="824.0" y="188.0" class="section" text-anchor="start">Brier</text>
<text x="1112.0" y="187.0" class="big" text-anchor="end" style="fill:#7257D9">0.109</text>
<text x="824.0" y="212.0" class="small" text-anchor="start">lower is better</text>
<rect x="454.0" y="246.0" width="330.0" height="94.0" rx="14" fill="#FFFFFF" stroke="#D9E2EC" stroke-width="1"/>
<text x="472.0" y="271.0" class="eyebrow" text-anchor="start">CALIBRATION</text>
<text x="472.0" y="300.0" class="section" text-anchor="start">ECE</text>
<text x="760.0" y="299.0" class="big" text-anchor="end" style="fill:#7257D9">0.258</text>
<text x="472.0" y="324.0" class="small" text-anchor="start">lower average gap</text>
<rect x="806.0" y="246.0" width="330.0" height="94.0" rx="14" fill="#FFFFFF" stroke="#D9E2EC" stroke-width="1"/>
<text x="824.0" y="271.0" class="eyebrow" text-anchor="start">THRESHOLD</text>
<text x="824.0" y="300.0" class="section" text-anchor="start">Recall</text>
<text x="1112.0" y="299.0" class="big" text-anchor="end" style="fill:#7257D9">0.900</text>
<text x="824.0" y="324.0" class="small" text-anchor="start">at 0.50</text>
<rect x="454.0" y="370.0" width="682.0" height="166.0" rx="16" fill="#0B1F3A" stroke="#0B1F3A" stroke-width="1"/>
<text x="476.0" y="399.0" class="eyebrow" text-anchor="start" style="fill:#7257D9">DEPLOYMENT DIAGNOSTICS</text>
<text x="476.0" y="438.0" class="display" text-anchor="start" style="fill:#FFFFFF">3</text>
<text x="520.0" y="438.0" class="label" text-anchor="start" style="fill:#C7D4E4">subgroups reviewed</text>
<text x="476.0" y="472.0" class="section" text-anchor="start" style="fill:#FFFFFF">FPR range gap 0.0%</text>
<text x="476.0" y="500.0" class="section" text-anchor="start" style="fill:#FFFFFF">FNR range gap 16.7%</text>
<text x="902.0" y="438.0" class="display" text-anchor="middle" style="fill:#FFFFFF">1.093</text>
<text x="902.0" y="466.0" class="label" text-anchor="middle" style="fill:#C7D4E4">score PSI</text>
<text x="902.0" y="494.0" class="small" text-anchor="middle" style="fill:#C7D4E4">PSI is a descriptive</text>
<text x="902.0" y="510.0" class="small" text-anchor="middle" style="fill:#C7D4E4">score-distribution diagnostic;</text>
<text x="902.0" y="526.0" class="small" text-anchor="middle" style="fill:#C7D4E4">investigate data, label, population,</text>
<text x="902.0" y="542.0" class="small" text-anchor="middle" style="fill:#C7D4E4">and policy changes before attributing</text>
<text x="902.0" y="558.0" class="small" text-anchor="middle" style="fill:#C7D4E4">a cause.</text>
<text x="239.0" y="526.0" class="small" text-anchor="middle">Mean predicted probability</text>
<text x="64.0" y="327.0" class="small" text-anchor="middle" transform="rotate(-90 64 327.0)">Observed event rate</text>
<line x1="36" y1="580.0" x2="1164" y2="580.0" stroke="#D9E2EC" stroke-width="1"/>
<text x="42.0" y="602.0" class="footnote" text-anchor="start">Source: prediction-results.json</text>
<text x="1158.0" y="602.0" class="footnote" text-anchor="end">Prediction quality · not intervention effect</text>
</svg>
