<svg xmlns="http://www.w3.org/2000/svg" width="1200" height="478" viewBox="0 0 1200 478" role="img" aria-labelledby="title desc">
<title id="title">Decision robustness profile</title>
<desc id="desc">Donut and bullet bars show probability-best, weight stability, scenario stability, constraint headroom, their weights, and the overall robustness diagnostic.</desc>
<style>
  text { font-family: -apple-system, BlinkMacSystemFont, "Segoe UI", Arial, sans-serif; }
  .kicker { font-size: 11px; font-weight: 800; letter-spacing: 1.6px; }
  .title { font-size: 27px; font-weight: 760; letter-spacing: -0.2px; }
  .subtitle { font-size: 14px; }
  .section { fill: #0B1324; font-size: 17px; font-weight: 720; }
  .label { fill: #263449; font-size: 14px; }
  .small { fill: #617084; font-size: 12px; }
  .eyebrow { fill: #617084; font-size: 10.5px; font-weight: 800; letter-spacing: 1px; }
  .value { fill: #0B1324; font-size: 16px; font-weight: 750; font-variant-numeric: tabular-nums; }
  .big { fill: #0B1324; font-size: 30px; font-weight: 800; font-variant-numeric: tabular-nums; }
  .display { fill: #0B1324; font-size: 38px; font-weight: 820; font-variant-numeric: tabular-nums; }
  .mono { fill: #263449; font-size: 12.5px; font-family: ui-monospace, SFMono-Regular, Menlo, Consolas, monospace; font-variant-numeric: tabular-nums; }
  .pill { font-size: 11px; font-weight: 760; letter-spacing: .25px; }
  .footnote { fill: #8B98A9; font-size: 10.5px; }
</style>
<rect width="1200" height="478" fill="#F3F6FA"/>
<rect width="1200" height="112" fill="#0B1F3A"/>
<rect width="10" height="112" fill="#D85B43"/>
<text x="42.0" y="32.0" class="kicker" text-anchor="start" style="fill:#D85B43">DECISION INTELLIGENCE</text>
<text x="42.0" y="66.0" class="title" text-anchor="start" style="fill:#FFFFFF">Decision robustness profile</text>
<text x="42.0" y="93.0" class="subtitle" text-anchor="start" style="fill:#C7D4E4">Transparent components explain the modeled score and readiness status</text>
<circle cx="1122" cy="56" r="28" fill="none" stroke="#D85B43" stroke-width="2"/>
<circle cx="1122" cy="56" r="9" fill="#D85B43"/>
<line x1="1084" y1="56" x2="1160" y2="56" stroke="#49627F" stroke-width="1"/>
<line x1="1122" y1="18" x2="1122" y2="94" stroke="#49627F" stroke-width="1"/>
<rect x="36.0" y="134.0" width="322.0" height="270.0" rx="18" fill="#FFFFFF" stroke="#D9E2EC" stroke-width="1"/>
<circle cx="197.0" cy="242.0" r="72.0" fill="none" stroke="#DCE4ED" stroke-width="16"/>
<circle cx="197.0" cy="242.0" r="72.0" fill="none" stroke="#D85B43" stroke-width="16" stroke-linecap="round" stroke-dasharray="427.6 452.4" transform="rotate(-90 197.0 242.0)"/>
<text x="197.0" y="239.0" class="display" text-anchor="middle">95</text>
<text x="197.0" y="261.0" class="eyebrow" text-anchor="middle">OF 100</text>
<rect x="77.0" y="334.0" width="240.0" height="28.0" rx="14" fill="#FFF0D8" stroke="none" stroke-width="1"/>
<text x="197.0" y="353.0" class="pill" text-anchor="middle" style="fill:#B06A00">Illustrative preference</text>
<text x="197.0" y="384.0" class="small" text-anchor="middle">Model behavior · not real-world confidence</text>
<rect x="382.0" y="138.0" width="782.0" height="58.0" rx="12" fill="#FFFFFF" stroke="#D9E2EC" stroke-width="1"/>
<text x="402.0" y="161.0" class="section" text-anchor="start">P(best among feasible)</text>
<text x="402.0" y="181.0" class="small" text-anchor="start">How often this option leads</text>
<rect x="690.0" y="162.0" width="320.0" height="10.0" rx="5.0" fill="#E8EDF3"/>
<rect x="690.0" y="162.0" width="320.0" height="10.0" rx="5.0" fill="#D85B43"/>
<line x1="930.0" y1="158.0" x2="930.0" y2="176.0" stroke="#0B1324" stroke-width="1.5"/>
<text x="1030.0" y="167.0" class="value" text-anchor="start">100%</text>
<rect x="1083.0" y="153.0" width="62.0" height="28.0" rx="14" fill="#FCE7E2" stroke="none" stroke-width="1"/>
<text x="1114.0" y="172.0" class="pill" text-anchor="middle" style="fill:#D85B43">w 30%</text>
<rect x="382.0" y="206.0" width="782.0" height="58.0" rx="12" fill="#FFFFFF" stroke="#D9E2EC" stroke-width="1"/>
<text x="402.0" y="229.0" class="section" text-anchor="start">Weight stability</text>
<text x="402.0" y="249.0" class="small" text-anchor="start">Survives local value changes</text>
<rect x="690.0" y="230.0" width="320.0" height="10.0" rx="5.0" fill="#E8EDF3"/>
<rect x="690.0" y="230.0" width="320.0" height="10.0" rx="5.0" fill="#D85B43"/>
<line x1="930.0" y1="226.0" x2="930.0" y2="244.0" stroke="#0B1324" stroke-width="1.5"/>
<text x="1030.0" y="235.0" class="value" text-anchor="start">100%</text>
<rect x="1083.0" y="221.0" width="62.0" height="28.0" rx="14" fill="#FCE7E2" stroke="none" stroke-width="1"/>
<text x="1114.0" y="240.0" class="pill" text-anchor="middle" style="fill:#D85B43">w 25%</text>
<rect x="382.0" y="274.0" width="782.0" height="58.0" rx="12" fill="#FFFFFF" stroke="#D9E2EC" stroke-width="1"/>
<text x="402.0" y="297.0" class="section" text-anchor="start">Scenario stability</text>
<text x="402.0" y="317.0" class="small" text-anchor="start">Leads across modeled worlds</text>
<rect x="690.0" y="298.0" width="320.0" height="10.0" rx="5.0" fill="#E8EDF3"/>
<rect x="690.0" y="298.0" width="320.0" height="10.0" rx="5.0" fill="#D85B43"/>
<line x1="930.0" y1="294.0" x2="930.0" y2="312.0" stroke="#0B1324" stroke-width="1.5"/>
<text x="1030.0" y="303.0" class="value" text-anchor="start">100%</text>
<rect x="1083.0" y="289.0" width="62.0" height="28.0" rx="14" fill="#FCE7E2" stroke="none" stroke-width="1"/>
<text x="1114.0" y="308.0" class="pill" text-anchor="middle" style="fill:#D85B43">w 25%</text>
<rect x="382.0" y="342.0" width="782.0" height="58.0" rx="12" fill="#FFFFFF" stroke="#D9E2EC" stroke-width="1"/>
<text x="402.0" y="365.0" class="section" text-anchor="start">Constraint headroom</text>
<text x="402.0" y="385.0" class="small" text-anchor="start">Distance from risk boundary</text>
<rect x="690.0" y="366.0" width="320.0" height="10.0" rx="5.0" fill="#E8EDF3"/>
<rect x="690.0" y="366.0" width="232.4" height="10.0" rx="5.0" fill="#D85B43"/>
<line x1="930.0" y1="362.0" x2="930.0" y2="380.0" stroke="#0B1324" stroke-width="1.5"/>
<text x="1030.0" y="371.0" class="value" text-anchor="start">73%</text>
<rect x="1083.0" y="357.0" width="62.0" height="28.0" rx="14" fill="#FCE7E2" stroke="none" stroke-width="1"/>
<text x="1114.0" y="376.0" class="pill" text-anchor="middle" style="fill:#D85B43">w 20%</text>
<text x="382.0" y="430.0" class="small" text-anchor="start">Reference marker = 75% diagnostic threshold · component weights sum to 100%</text>
<line x1="36" y1="438.0" x2="1164" y2="438.0" stroke="#D9E2EC" stroke-width="1"/>
<text x="42.0" y="460.0" class="footnote" text-anchor="start">Source: decision-results.json</text>
<text x="1158.0" y="460.0" class="footnote" text-anchor="end">Synthetic demonstration · values shown directly</text>
</svg>
