<svg xmlns="http://www.w3.org/2000/svg" width="1000" height="540" viewBox="0 0 1000 540" role="img" aria-labelledby="title desc">
<title id="title">Reported operating margin by peer</title>
<desc id="desc">Common-size ratios from reconciled annual 10-K facts. Source: SEC XBRL Companyfacts for McKesson, Cardinal Health, and Cencora; snapshots reviewed 2026-07-27 to 2026-07-28</desc>
<defs>
  <pattern id="microGrid" width="22" height="22" patternUnits="userSpaceOnUse">
    <circle cx="1" cy="1" r=".85" fill="#FFFFFF" opacity=".12"/>
  </pattern>
</defs>
<rect width="1000" height="540" fill="#F3F6FA"/>
<rect width="1000" height="102" fill="#0B1F3A"/>
<rect width="1000" height="102" fill="url(#microGrid)"/>
<rect width="8" height="102" fill="#008C82"/>
<circle cx="925" cy="50" r="30" fill="none" stroke="#008C82" stroke-width="2" opacity=".9"/>
<circle cx="925" cy="50" r="9" fill="#008C82"/>
<circle cx="925" cy="50" r="52" fill="none" stroke="#49627F" stroke-width="1" opacity=".55"/>
<line x1="860" y1="50" x2="990" y2="50" stroke="#49627F" stroke-width="1"/>
<line x1="925" y1="4" x2="925" y2="96" stroke="#49627F" stroke-width="1"/>
<text x="42" y="24" font-family="-apple-system,BlinkMacSystemFont,'Segoe UI',Arial,sans-serif" font-size="9.5" font-weight="800" letter-spacing="1.6" fill="#008C82">EDITORIAL EVIDENCE · ANALYTICAL REPORT</text>
<text x="42" y="55" font-family="-apple-system,BlinkMacSystemFont,'Segoe UI',Arial,sans-serif" font-size="25" font-weight="760" fill="#FFFFFF">Reported operating margin by peer</text>
<text x="42" y="82" font-family="-apple-system,BlinkMacSystemFont,'Segoe UI',Arial,sans-serif" font-size="13.5" fill="#C7D4E4">Common-size ratios from reconciled annual 10-K facts</text>
<rect x="36" y="110" width="928" height="348" rx="18" fill="#07152A" opacity=".07"/>
<rect x="32" y="104" width="936" height="350" rx="18" fill="#FFFFFF" stroke="#D9E2EC"/>
<rect x="32" y="104" width="5" height="350" rx="2.5" fill="#008C82"/>
<rect x="45" y="112" width="74" height="8" rx="4" fill="#DDF5F2"/>
<rect x="66" y="119" width="874" height="317" rx="13" fill="#FBFCFE" stroke="#D9E2EC"/><rect x="90" y="126" width="106" height="24" rx="12" fill="#DDF5F2"/><text x="143" y="142" text-anchor="middle" font-family="-apple-system,BlinkMacSystemFont,&quot;Segoe UI&quot;,Arial,sans-serif" font-size="9" font-weight="800" letter-spacing=".8" fill="#008C82">24 OBSERVATIONS</text><line x1="90" y1="430" x2="930" y2="430" stroke="#263449" stroke-width="1.4"/><line x1="90" y1="110" x2="90" y2="430" stroke="#263449" stroke-width="1.4"/><line x1="90" y1="430" x2="90" y2="436" stroke="#0B1324"/><text x="90" y="451" text-anchor="middle" font-family="Arial" font-size="12" fill="#617084">2018</text><line x1="300" y1="430" x2="300" y2="436" stroke="#0B1324"/><text x="300" y="451" text-anchor="middle" font-family="Arial" font-size="12" fill="#617084">2020</text><line x1="510" y1="430" x2="510" y2="436" stroke="#0B1324"/><text x="510" y="451" text-anchor="middle" font-family="Arial" font-size="12" fill="#617084">2022</text><line x1="720" y1="430" x2="720" y2="436" stroke="#0B1324"/><text x="720" y="451" text-anchor="middle" font-family="Arial" font-size="12" fill="#617084">2023</text><line x1="930" y1="430" x2="930" y2="436" stroke="#0B1324"/><text x="930" y="451" text-anchor="middle" font-family="Arial" font-size="12" fill="#617084">2025</text><line x1="90" y1="110" x2="930" y2="110" stroke="#D9E2EC" stroke-dasharray="2 5"/><text x="82" y="114" text-anchor="end" font-family="Arial" font-size="12" fill="#617084">2%</text><line x1="90" y1="190" x2="930" y2="190" stroke="#D9E2EC" stroke-dasharray="2 5"/><text x="82" y="194" text-anchor="end" font-family="Arial" font-size="12" fill="#617084">1%</text><line x1="90" y1="270" x2="930" y2="270" stroke="#D9E2EC" stroke-dasharray="2 5"/><text x="82" y="274" text-anchor="end" font-family="Arial" font-size="12" fill="#617084">-1%</text><line x1="90" y1="350" x2="930" y2="350" stroke="#D9E2EC" stroke-dasharray="2 5"/><text x="82" y="354" text-anchor="end" font-family="Arial" font-size="12" fill="#617084">-2%</text><line x1="90" y1="430" x2="930" y2="430" stroke="#D9E2EC" stroke-dasharray="2 5"/><text x="82" y="434" text-anchor="end" font-family="Arial" font-size="12" fill="#617084">-3%</text><polyline points="90.0,221.3 210.0,122.5 330.0,428.2 450.0,206.5 570.0,253.1 690.0,200.8 810.0,187.3 930.0,151.9" fill="none" stroke="#008C82" stroke-width="4" stroke-linejoin="round" stroke-linecap="round"/><circle cx="930.0" cy="151.9" r="6" fill="#FFFFFF" stroke="#008C82" stroke-width="3"/><circle cx="90.0" cy="221.3" r="2.7" fill="#FFFFFF" stroke="#008C82" stroke-width="1.6"/><circle cx="210.0" cy="122.5" r="2.7" fill="#FFFFFF" stroke="#008C82" stroke-width="1.6"/><circle cx="330.0" cy="428.2" r="2.7" fill="#FFFFFF" stroke="#008C82" stroke-width="1.6"/><circle cx="450.0" cy="206.5" r="2.7" fill="#FFFFFF" stroke="#008C82" stroke-width="1.6"/><circle cx="570.0" cy="253.1" r="2.7" fill="#FFFFFF" stroke="#008C82" stroke-width="1.6"/><circle cx="690.0" cy="200.8" r="2.7" fill="#FFFFFF" stroke="#008C82" stroke-width="1.6"/><circle cx="810.0" cy="187.3" r="2.7" fill="#FFFFFF" stroke="#008C82" stroke-width="1.6"/><line x1="110" y1="96" x2="140" y2="96" stroke="#008C82" stroke-width="4" stroke-linecap="round"/><text x="146" y="100" font-family="-apple-system,BlinkMacSystemFont,&quot;Segoe UI&quot;,Arial,sans-serif" font-size="12.5" font-weight="650" fill="#C7D4E4">Cardinal Health</text><polyline points="90.0,164.0 210.0,182.0 330.0,430.0 450.0,146.1 570.0,154.1 690.0,161.5 810.0,172.9 930.0,167.1" fill="none" stroke="#C69214" stroke-width="3" stroke-linejoin="round" stroke-linecap="round" stroke-dasharray="7 5"/><circle cx="930.0" cy="167.1" r="4.5" fill="#FFFFFF" stroke="#C69214" stroke-width="3"/><circle cx="90.0" cy="164.0" r="2.7" fill="#FFFFFF" stroke="#C69214" stroke-width="1.6"/><circle cx="210.0" cy="182.0" r="2.7" fill="#FFFFFF" stroke="#C69214" stroke-width="1.6"/><circle cx="330.0" cy="430.0" r="2.7" fill="#FFFFFF" stroke="#C69214" stroke-width="1.6"/><circle cx="450.0" cy="146.1" r="2.7" fill="#FFFFFF" stroke="#C69214" stroke-width="1.6"/><circle cx="570.0" cy="154.1" r="2.7" fill="#FFFFFF" stroke="#C69214" stroke-width="1.6"/><circle cx="690.0" cy="161.5" r="2.7" fill="#FFFFFF" stroke="#C69214" stroke-width="1.6"/><circle cx="810.0" cy="172.9" r="2.7" fill="#FFFFFF" stroke="#C69214" stroke-width="1.6"/><line x1="300" y1="96" x2="330" y2="96" stroke="#C69214" stroke-width="4" stroke-linecap="round" stroke-dasharray="7 5"/><text x="336" y="100" font-family="-apple-system,BlinkMacSystemFont,&quot;Segoe UI&quot;,Arial,sans-serif" font-size="12.5" font-weight="650" fill="#C7D4E4">Cencora</text><polyline points="90.0,200.9 210.0,197.3 330.0,147.8 450.0,386.1 570.0,170.5 690.0,110.0 810.0,133.7 930.0,136.2" fill="none" stroke="#B9487C" stroke-width="3" stroke-linejoin="round" stroke-linecap="round"/><circle cx="930.0" cy="136.2" r="4.5" fill="#FFFFFF" stroke="#B9487C" stroke-width="3"/><circle cx="90.0" cy="200.9" r="2.7" fill="#FFFFFF" stroke="#B9487C" stroke-width="1.6"/><circle cx="210.0" cy="197.3" r="2.7" fill="#FFFFFF" stroke="#B9487C" stroke-width="1.6"/><circle cx="330.0" cy="147.8" r="2.7" fill="#FFFFFF" stroke="#B9487C" stroke-width="1.6"/><circle cx="450.0" cy="386.1" r="2.7" fill="#FFFFFF" stroke="#B9487C" stroke-width="1.6"/><circle cx="570.0" cy="170.5" r="2.7" fill="#FFFFFF" stroke="#B9487C" stroke-width="1.6"/><circle cx="690.0" cy="110.0" r="2.7" fill="#FFFFFF" stroke="#B9487C" stroke-width="1.6"/><circle cx="810.0" cy="133.7" r="2.7" fill="#FFFFFF" stroke="#B9487C" stroke-width="1.6"/><line x1="490" y1="96" x2="520" y2="96" stroke="#B9487C" stroke-width="4" stroke-linecap="round"/><text x="526" y="100" font-family="-apple-system,BlinkMacSystemFont,&quot;Segoe UI&quot;,Arial,sans-serif" font-size="12.5" font-weight="650" fill="#C7D4E4">McKesson</text>
<line x1="42" y1="485" x2="958" y2="485" stroke="#B9C6D5"/>
<text x="42" y="510" font-family="-apple-system,BlinkMacSystemFont,'Segoe UI',Arial,sans-serif" font-size="10.5" fill="#617084">Source: SEC XBRL Companyfacts for McKesson, Cardinal Health, and Cencora; snapshots reviewed 2026-07-27 to 2026-07-28</text>
<text x="958" y="510" text-anchor="end" font-family="-apple-system,BlinkMacSystemFont,'Segoe UI',Arial,sans-serif" font-size="9.5" font-weight="750" letter-spacing=".8" fill="#008C82">SOURCE-TRACEABLE · CLAIM-BOUNDED</text>
</svg>
